<svg width="104" height="104" viewBox="0 0 104 104" fill="none" xmlns="http://www.w3.org/2000/svg">
<path d="M31.0003 30.0007C23.8321 30.0007 18 35.8324 18 43.0003C18 50.1682 23.8321 56 31.0003 56C34.0911 56 36.9327 54.9156 39.1659 53.1074C39.6668 53.7906 40.0654 54.4403 40.367 54.9831C40.6785 55.5437 41.2594 55.8604 41.8586 55.8604C42.1386 55.8604 42.4225 55.7909 42.6848 55.6453C43.5076 55.1883 43.8046 54.1505 43.347 53.327C42.7687 52.2866 42.1556 51.3811 41.5419 50.597C43.0873 48.4584 44 45.8339 44 42.9997C44 35.8318 38.1679 30 30.9997 30L31.0003 30.0007ZM39.1462 48.0565C37.6336 46.7361 36.4731 46.1952 36.3852 46.1552L34.9743 49.2589L34.9631 49.2536C34.971 49.2569 35.7315 49.6215 36.7727 50.5072C36.8029 50.5328 36.8317 50.5596 36.8619 50.5852C35.2398 51.8414 33.206 52.5901 31.0003 52.5901C25.7118 52.5901 21.4094 48.2879 21.4094 42.9997C21.4094 37.7114 25.7118 33.4092 31.0003 33.4092C36.2888 33.4092 40.5912 37.7114 40.5912 42.9997C40.5912 44.8544 40.0615 46.5872 39.1462 48.0558V48.0565Z" fill="#BAA378"/>
<path d="M62.0041 69.8402C62.8661 70.2438 63.8845 69.8544 64.2779 68.9691L66.8103 63.2757H76.9607C77.036 63.2757 77.1106 63.2703 77.1832 63.2608L79.7222 68.9698C80.0107 69.6173 80.6331 70 81.2845 70C81.5228 70 81.765 69.9485 81.996 69.8408C82.858 69.4372 83.2382 68.3921 82.8448 67.5075L74.4395 48.6093C73.9979 47.617 73.0633 47 72 47C70.9368 47 70.0022 47.6163 69.5606 48.6093L61.1553 67.5075C60.7619 68.3921 61.1415 69.4372 62.0041 69.8408V69.8402ZM71.9994 51.6064L75.6229 59.753H68.3766L72 51.6064H71.9994Z" fill="#BAA378"/>
<path d="M98.5025 46.0334C95.5821 39.4249 90.3839 34.1885 83.8658 31.2883C78.5153 28.9075 72.668 28.1887 66.9579 29.2099L67.559 32.5672C72.5945 31.6674 77.7541 32.3023 82.4785 34.4043C88.2215 36.9595 92.8042 41.5788 95.3813 47.4114C97.9578 53.2426 98.2912 59.7416 96.3185 65.7119C95.0053 69.6871 92.8278 73.1671 89.8464 76.0562L89.2144 76.6681L90.7061 86.4313C88.291 85.052 85.0012 83.1585 82.615 81.7268L81.9036 81.2998L81.1286 81.5949C74.8593 83.9836 68.0066 83.8262 61.8337 81.1522C55.4129 78.3707 50.4069 72.9998 48.0043 66.3474C49.1226 65.5302 50.1896 64.6297 51.1957 63.6486C56.369 58.603 59.4594 51.904 59.8978 44.7866C60.0874 41.7021 59.7947 38.651 59.0413 35.7232C61.6782 34.1682 64.5389 33.1063 67.559 32.5666L66.9579 29.2092C63.7868 29.7759 60.7706 30.8495 57.9683 32.4059C57.4053 30.9689 56.726 29.5726 55.9313 28.2294C53.2544 23.7091 49.4002 19.9963 44.784 17.4916C40.0031 14.8983 34.5765 13.7112 29.0888 14.0594C22.0484 14.5061 15.4063 17.5499 10.3865 22.6309C5.3681 27.7093 2.40375 34.3853 2.03952 41.4273C1.66086 48.7572 4.01291 55.8307 8.67632 61.4403C7.98593 65.2489 7.14723 70.4321 6.80203 72.588C6.67341 73.3934 7.0081 74.1837 7.67683 74.6507C8.04237 74.9058 8.46435 75.035 8.8883 75.035C9.24268 75.035 9.59838 74.9451 9.92388 74.7635L19.3695 69.4969C23.3904 71.2598 27.6739 72.0672 32.1161 71.8954C36.6903 71.7196 41.1174 70.4518 45.0682 68.235C47.8855 75.4318 53.4283 81.229 60.4759 84.2813C64.1805 85.8862 68.1004 86.691 72.0249 86.6903C75.2386 86.6903 78.4556 86.1505 81.5578 85.0684C84.885 87.0465 89.4513 89.6456 91.3519 90.7226C91.6793 90.9082 92.0383 91 92.3953 91C92.8127 91 93.2288 90.8741 93.5904 90.6255C94.2644 90.1618 94.6063 89.3708 94.4822 88.5608L92.8495 77.8749C95.909 74.7267 98.1632 70.9988 99.5571 66.7796C101.795 60.0059 101.42 52.6379 98.5012 46.0321L98.5025 46.0334ZM31.9855 68.4875C27.7999 68.6482 23.7757 67.8277 20.0251 66.047L19.2304 65.6699L10.6005 70.482C11.0481 67.7385 11.6722 63.9968 12.1795 61.2612L12.3311 60.446L11.7831 59.8236C7.35133 54.7892 5.10165 48.3191 5.44816 41.6037C5.76907 35.3973 8.38494 29.5102 12.8154 25.0268C17.2458 20.5426 23.1023 17.8562 29.306 17.4627C29.8586 17.4279 30.4105 17.4102 30.9611 17.4102C35.2367 17.4102 39.4217 18.4629 43.1565 20.4889C47.2305 22.6991 50.6326 25.9765 52.9952 29.9661C55.6005 34.3663 56.81 39.4184 56.4924 44.5774C56.1065 50.8481 53.3791 56.7548 48.8135 61.2081C44.2485 65.6601 38.2732 68.2455 31.9868 68.4875H31.9855Z" fill="#BAA378"/>
</svg>
